<?xml version="1.0" standalone="no"?><svg xmlns="http://www.w3.org/2000/svg" width="100%" height="100%" viewBox="0 0 1440 320" preserveAspectRatio="none"><path fill="#228B22" fill-opacity="1" d="M0,128L40,117.3C80,107,160,85,240,112C320,139,400,213,480,229.3C560,245,640,203,720,192C800,181,880,203,960,186.7C1040,171,1120,117,1200,96C1280,75,1360,85,1400,90.7L1440,96L1440,320L1400,320C1360,320,1280,320,1200,320C1120,320,1040,320,960,320C880,320,800,320,720,320C640,320,560,320,480,320C400,320,320,320,240,320C160,320,80,320,40,320L0,320Z"></path></svg>
